IKResults
version=1
nRows=11
nColumns=63
inDegrees=yes

Units are S.I. units (second, meters, Newtons, ...)
If the header above contains a line with 'inDegrees', this indicates whether rotational values are in degrees (yes) or radians (no).

endheader
time	pelvis_tilt	pelvis_list	pelvis_rotation	pelvis_tx	pelvis_ty	pelvis_tz	hip_flexion_r	hip_adduction_r	hip_rotation_r	knee_angle_r	knee_angle_r_beta	ankle_angle_r	subtalar_angle_r	mtp_angle_r	hip_flexion_l	hip_adduction_l	hip_rotation_l	knee_angle_l	knee_angle_l_beta	ankle_angle_l	subtalar_angle_l	mtp_angle_l	L5_S1_Flex_Ext	L5_S1_Lat_Bending	L5_S1_axial_rotation	L4_L5_Flex_Ext	L4_L5_Lat_Bending	L4_L5_axial_rotation	L3_L4_Flex_Ext	L3_L4_Lat_Bending	L3_L4_axial_rotation	L2_L3_Flex_Ext	L2_L3_Lat_Bending	L2_L3_axial_rotation	L1_L2_Flex_Ext	L1_L2_Lat_Bending	L1_L2_axial_rotation	L1_T12_Flex_Ext	L1_T12_Lat_Bending	L1_T12_axial_rotation	Abs_r3	Abs_r2	Abs_r1	Abs_t1	Abs_t2	neck_flexion	neck_bending	neck_rotation	arm_flex_r	arm_add_r	arm_rot_r	elbow_flex_r	pro_sup_r	wrist_flex_r	wrist_dev_r	arm_flex_l	arm_add_l	arm_rot_l	elbow_flex_l	pro_sup_l	wrist_flex_l	wrist_dev_l
      2.03333333	     32.98343731	      1.31822424	     -6.80153041	     -0.52755383	      0.30586207	     -0.21742906	    100.88137523	     -7.13470003	      5.52358538	    119.86380951	      2.09201813	    -17.45360792	    -19.64857715	      0.00000000	     99.61485143	    -27.96482119	      8.92484880	    119.50239119	      2.08571019	     -8.38049797	    -19.52713897	      0.00000000	    -10.20074006	     -0.53623755	      0.99415226	    -18.94379436	     -0.71319594	      1.05628677	    -16.75879584	     -1.30380798	      1.05628677	    -11.65842581	     -1.30380798	      0.86988323	     -9.47240722	     -1.09349561	      0.80774871	     -5.82870287	     -0.83063197	      0.74561419	    -72.86286616	     -6.06602642	      5.52917661	      0.00000000	      0.00000000	     28.33900355	     -0.93277179	    -24.35459955	     69.90148811	    -37.48338538	     30.43691036	     25.08537511	     89.99559364	      0.00000000	      0.00000000	     45.19899681	    -49.04907433	     78.10328532	     60.59637005	     89.99559364	      0.00000000	      0.00000000
      2.06666667	     36.90167802	      0.77523768	     -6.09984264	     -0.53720936	      0.30096591	     -0.21981403	     97.85266202	     -8.01335215	      5.61380452	    119.83061918	      2.09143885	    -18.60147998	    -19.63701512	      0.00000000	     96.80631490	    -26.99644382	      9.04270657	    119.32966745	      2.08269559	     -9.85951321	    -19.56467586	      0.00000000	    -10.22264185	     -0.42029432	      0.79970527	    -18.98446818	     -0.55899144	      0.84968685	    -16.79477830	     -1.02190360	      0.84968685	    -11.68345737	     -1.02190360	      0.69974211	     -9.49274522	     -0.85706417	      0.64976053	     -5.84121755	     -0.65103590	      0.59977895	    -73.01930848	     -4.75445338	      4.44772079	      0.00000000	      0.00000000	     28.23406402	      0.48946545	    -20.40546989	     67.70793612	    -36.20073995	     29.29454004	     25.02683796	     89.99559364	      0.00000000	      0.00000000	     41.53328551	    -49.14307356	     72.52896275	     60.34494403	     89.99559364	      0.00000000	      0.00000000
      2.10000000	     40.77967187	      0.72555207	     -5.91183608	     -0.54661882	      0.29801296	     -0.22049760	     94.63655685	     -8.15972966	      6.06893458	    119.75652001	      2.09014557	    -19.15304782	    -19.61846280	      0.00000000	     93.27923888	    -26.67840528	      8.58045374	    119.01194138	      2.07715023	    -10.80632603	    -19.57947933	      0.00000000	    -10.24810318	     -0.40523123	      0.69192701	    -19.03175242	     -0.53895753	      0.73517244	    -16.83660872	     -0.98527921	      0.73517244	    -11.71255713	     -0.98527921	      0.60543613	     -9.51638861	     -0.82634752	      0.56219069	     -5.85576616	     -0.62770317	      0.51894525	    -73.20117621	     -4.58405669	      3.84829043	      0.00000000	      0.00000000	     28.02396754	      1.68540217	    -18.78653694	     64.29221883	    -35.70165896	     28.57047932	     25.80343080	     89.99559364	      0.00000000	      0.00000000	     39.96334773	    -49.11744687	     69.98873222	     59.66624153	     89.99559364	      0.00000000	      0.00000000
      2.13333333	     44.23835883	      1.18759189	     -5.62844249	     -0.55558234	      0.29607472	     -0.22169546	     91.76481236	     -8.50550204	      7.00679257	    119.61431483	      2.08766363	    -19.52453907	    -19.59405694	      0.00000000	     89.53574387	    -26.00582218	      7.44284322	    118.49980804	      2.06821181	    -11.49837616	    -19.60094807	      0.00000000	    -10.22009513	     -0.44140466	      0.47139729	    -18.97973866	     -0.58706819	      0.50085962	    -16.79059428	     -1.07323128	      0.50085962	    -11.68054672	     -1.07323128	      0.41247263	     -9.49038034	     -0.90011238	      0.38301030	     -5.83976236	     -0.68373581	      0.35354797	    -73.00111748	     -4.99325776	      2.62177030	      0.00000000	      0.00000000	     27.57986672	      2.81117049	    -17.61878929	     60.28041561	    -34.79866939	     26.28938158	     26.38740012	     89.99559364	      0.00000000	      0.00000000	     37.84639302	    -49.20468092	     66.29645906	     58.81709735	     89.99559364	      0.00000000	      0.00000000
      2.16666667	     46.85310241	      3.21574935	     -5.40445629	     -0.56391257	      0.29439303	     -0.22187707	     90.18109139	     -8.86837872	      9.52126012	    119.45908746	      2.08495440	    -19.90675722	    -19.55984299	      0.00000000	     85.54761829	    -24.93295063	      4.49879896	    117.50817504	      2.05090455	    -12.16182096	    -19.62707217	      0.00000000	    -10.06383135	     -0.65051163	      0.11830197	    -18.68954120	     -0.86518047	      0.12569584	    -16.53386853	     -1.58165398	      0.12569584	    -11.50195285	     -1.58165398	      0.10351423	     -9.34527379	     -1.32652332	      0.09612035	     -5.75047323	     -1.00764252	      0.08872648	    -71.88494095	     -7.35871768	      0.65796008	      0.00000000	      0.00000000	     26.57616089	      4.66265614	    -18.22465826	     53.93973571	    -32.45703835	     15.00451181	     27.33851141	     89.99559364	      0.00000000	      0.00000000	     37.13473717	    -49.86345897	     64.78727781	     57.79011059	     89.99559364	      0.00000000	      0.00000000
      2.20000000	     49.36458429	      3.15255715	     -5.73468600	     -0.57087944	      0.29298994	     -0.22216769	     87.73168482	     -8.48820482	      9.77848428	    119.05864792	      2.07796541	    -19.98634912	    -19.53342759	      0.00000000	     82.91355487	    -24.69220319	      4.26216646	    117.15807211	      2.04479410	    -12.54073662	    -19.63585750	      0.00000000	     -9.89078764	     -0.68425111	      0.13124771	    -18.36818172	     -0.91005398	      0.13945070	    -16.24957501	     -1.66368816	      0.13945070	    -11.30418119	     -1.66368816	      0.11484175	     -9.18458540	     -1.39532487	      0.10663877	     -5.65159606	     -1.05990497	      0.09843578	    -70.64890701	     -7.74038544	      0.72996041	      0.00000000	      0.00000000	     24.75051094	      5.52829407	    -18.17016341	     49.27101017	    -32.52922332	     14.90528414	     27.84867547	     89.99559364	      0.00000000	      0.00000000	     36.03525844	    -49.25240940	     63.48364004	     55.91417825	     89.99559364	      0.00000000	      0.00000000
      2.23333333	     51.62792219	      3.90171976	     -6.59214175	     -0.57761008	      0.29225506	     -0.22092398	     85.79148520	     -7.64542625	     10.89620216	    118.65720948	      2.07095899	    -20.15814198	    -19.50886834	      0.00000000	     79.76125442	    -24.80279793	      2.89092143	    116.53927911	      2.03399413	    -12.76221127	    -19.64145907	      0.00000000	     -9.69580815	     -0.85359188	      0.11302201	    -18.00608531	     -1.13527720	      0.12008589	    -15.92924320	     -2.07542330	      0.12008589	    -11.08133913	     -2.07542330	      0.09889426	     -9.00352744	     -1.74064456	      0.09183038	     -5.54018477	     -1.32221382	      0.08476651	    -69.25618800	     -9.65600207	      0.62859452	      0.00000000	      0.00000000	     22.84829842	      6.56058194	    -19.01411991	     43.51386342	    -31.04849202	      7.60996410	     28.54961733	     89.99559364	      0.00000000	      0.00000000	     34.71685135	    -49.20084330	     61.35227525	     54.39832571	     89.99559364	      0.00000000	      0.00000000
      2.26666667	     53.82247396	      3.75242855	     -7.00114341	     -0.58383393	      0.29173879	     -0.22156425	     83.46890995	     -7.26275187	     11.09305559	    118.16764525	      2.06241448	    -20.14269860	    -19.48030588	      0.00000000	     77.24571781	    -24.48119772	      2.68551196	    116.18614650	      2.02783080	    -12.92489022	    -19.64842725	      0.00000000	     -9.50961666	     -0.88544198	      0.15784048	    -17.66030910	     -1.17763783	      0.16770551	    -15.62334921	     -2.15286363	      0.16770551	    -10.86854088	     -2.15286363	      0.13811042	     -8.83063003	     -1.80559328	      0.12824539	     -5.43379496	     -1.37154963	      0.11838036	    -67.92624084	    -10.01629676	      0.87786138	      0.00000000	      0.00000000	     20.64683876	      7.03385963	    -18.94427178	     38.85628819	    -31.41048658	      7.60458561	     28.81975729	     89.99559364	      0.00000000	      0.00000000	     33.52112506	    -48.48628597	     60.21493342	     52.54539197	     89.99559364	      0.00000000	      0.00000000
      2.30000000	     55.98280787	      3.52851505	     -7.98989968	     -0.58990773	      0.29150053	     -0.22116160	     81.16862240	     -6.21838893	     11.33577628	    117.60335225	      2.05256571	    -20.35938965	    -19.45988342	      0.00000000	     74.60321416	    -24.87094777	      2.36081278	    115.85409452	      2.02203540	    -13.08328382	    -19.65047915	      0.00000000	     -9.34342849	     -0.96035941	      0.27447802	    -17.35168105	     -1.27727802	      0.29163290	    -15.35031866	     -2.33501787	      0.29163290	    -10.67860442	     -2.33501787	      0.24016827	     -8.67630769	     -1.95836491	      0.22301339	     -5.33883504	     -1.48759673	      0.20585852	    -66.73917535	    -10.86377774	      1.52656440	      0.00000000	      0.00000000	     18.84758235	      7.32536668	    -19.38047600	     34.10307765	    -31.43078700	      5.53295758	     29.19147093	     89.99559364	      0.00000000	      0.00000000	     31.42824837	    -47.95248880	     57.21239440	     51.16468801	     89.99559364	      0.00000000	      0.00000000
      2.33333333	     57.98018245	      3.29022887	     -8.20725479	     -0.59539679	      0.29119038	     -0.22168292	     78.95972935	     -6.00059333	     11.43092252	    117.16337641	      2.04488668	    -20.30871201	    -19.43231353	      0.00000000	     72.34270649	    -24.48508464	      2.30020859	    115.52519064	      2.01629495	    -13.29130930	    -19.65282084	      0.00000000	     -9.15973601	     -0.97818699	      0.30298696	    -17.01054574	     -1.30098870	      0.32192364	    -15.04853029	     -2.37836385	      0.32192364	    -10.46866229	     -2.37836385	      0.26511359	     -8.50573086	     -1.99471891	      0.24617690	     -5.23387316	     -1.51521165	      0.22724022	    -65.42707834	    -11.06544687	      1.68512255	      0.00000000	      0.00000000	     16.53601218	      7.68542785	    -18.97811312	     29.73925444	    -31.88325702	      5.35052811	     28.99261480	     89.99559364	      0.00000000	      0.00000000	     29.97530384	    -47.56891095	     56.41222928	     49.89948364	     89.99559364	      0.00000000	      0.00000000
      2.36666667	     60.03997629	      2.85584209	     -9.16350700	     -0.60129611	      0.29115484	     -0.22166806	     76.63270874	     -4.95745306	     11.57541275	    116.55618139	      2.03428913	    -20.43342185	    -19.41636859	      0.00000000	     69.77855041	    -24.92080588	      2.06030773	    115.20215462	      2.01065690	    -13.34412918	    -19.65347387	      0.00000000	     -9.01472491	     -1.02363888	      0.42258754	    -16.74124564	     -1.36143972	      0.44899927	    -14.81029156	     -2.48887558	      0.44899927	    -10.30292911	     -2.48887558	      0.36976410	     -8.37107356	     -2.08740441	      0.34335238	     -5.15101382	     -1.58561663	      0.31694066	    -64.39127859	    -11.57960779	      2.35030514	      0.00000000	      0.00000000	     14.84356381	      7.58725858	    -18.50791466	     25.45848372	    -31.94991777	      2.38185099	     29.21179330	     89.99559364	      0.00000000	      0.00000000	     27.01279386	    -46.93645715	     52.13563220	     49.01653055	     89.99559364	      0.00000000	      0.00000000
